<svg version="1.0" xmlns="http://www.w3.org/2000/svg" width="682.667" height="682.667" viewBox="0 0 512 512"><path d="M288.8 2c-27.3 5.9-50.8 24.3-62.6 49.1-3.4 7.2-6.8 17.4-7.7 23.5l-.6 4.1-11.7.6c-13.4.7-24.5 2.6-38 6.3-5.1 1.4-11.9 2.8-15 2.9-13.1.8-25.6 3.3-35 7.2-34 13.8-58.8 44.6-63.8 79.3-.3 1.9-.7 4.1-1 4.8-.2.8-.4 10.8-.5 22.3l-.1 20.9h-2.9c-3.7 0-3.4-.1-9.6 2.1-21.5 7.4-32.5 31.1-24.2 52.2 4.7 11.8 15.4 21.1 27.7 23.8 2.8.7 5.2 1.3 5.2 1.4 0 .1-.9 3.1-2 6.5-2.8 8.8-10.1 23.9-15.4 31.8-4.5 6.8-4.9 7.9-4.7 12 .2 3.4 4.4 7.2 8.1 7.2 5.1 0 15.7-3.9 31.4-11.6 3.9-1.9 7.3-3.4 7.7-3.4.4 0 1.9 2 3.3 4.4 6.1 10.5 20 26.9 30.1 35.6 9.3 8 10.2 8.8 17.7 13.9 10.2 6.9 22.4 13.2 34.3 17.6 5.5 2 10.8 4 11.9 4.4 1.6.6 1.2 1.1-2.5 3.5-12.7 8.4-23.3 20.5-30.4 34.9-6.2 12.7-8.5 22.3-9.2 38.9l-.6 13.8h176.4l-.2-12.4c-.2-20.2-4.4-33.9-15.6-51.5-4.2-6.6-15.9-18.5-22.3-22.6-4.2-2.8-6.1-4.9-4.2-5 2.1-.2 15.8-5.3 23.7-9 22.6-10.5 46.2-29.1 59.5-47 2.5-3.3 4.7-6.2 5-6.5 1.4-1.3 9.7-15.2 13-21.8l3.6-7.2 4.6 4.7c5.8 6.1 16.3 15.9 21.1 19.8 2.1 1.6 5 4 6.5 5.3 3.7 3.1 21.5 15.2 27.7 18.7 18.7 10.8 50.2 23.7 57.9 23.7 7.5 0 12.9-5.5 13-13.2.1-3.9-.7-5.8-6.6-14.6-16.7-25.3-25.7-48.7-30.2-78.4-1.1-7.4-1.4-24.5-1.5-78-.1-37.7-.4-71.2-.6-74.5-.8-9.9-2.3-21.4-3.1-22.6-.2-.3-.6-1.9-.8-3.6-2.2-12.2-14-37.9-23.7-51.8-8.3-11.7-25-28.3-36.7-36.5C376.7 15 356 6.4 334 2.4c-1.9-.4-4.4-.9-5.5-1.1-1.1-.2-8.5-.6-16.5-.8-11.3-.2-16.4.1-23.2 1.5z"/></svg>